<?xml version="1.0" encoding="UTF-8"?>
<svg width="2711.3pt" height="225pt" version="1.2" viewBox="0 0 2711.3 225" xmlns="http://www.w3.org/2000/svg" xmlns:cc="http://creativecommons.org/ns#" xmlns:dc="http://purl.org/dc/elements/1.1/" xmlns:rdf="http://www.w3.org/1999/02/22-rdf-syntax-ns#">
 <path d="m1868.9 109.36 10.431-34.163 10.475 34.163 34.795-8.0184-24.32 26.144 24.32 26.13-34.795-8.0184-10.475 34.163-10.431-34.163-34.839 8.0184 24.364-26.13-24.364-26.144z" fill="#b32321"/>
 <path d="m1956 220.9h54.496v-171.11h49.493v-45.683h-153.51v45.683h49.523zm125.98 0h54.51v-216.79h-54.51zm89.041 0h47.198v-141.2h0.5591c1.2064 16.081 7.9448 47.448 9.3866 54.201l19.347 86.996h39.856l19.921-87.305c2.3394-10.549 8.4745-37.208 9.0777-52.465h0.5738v139.77h51.597v-216.79h-70.93l-26.968 141.2h-0.2648l-29.602-141.2h-69.752zm230.89 0h134.5v-44.256h-80.007v-46.286h54.51v-42.755h-54.51v-37.811h76.506v-45.683h-131zm233.21 4.1048c51.009 0 76.197-30.764 76.197-64.176 0-45.992-39.548-59.777-69.149-72.048-17.846-7.6506-31.941-14.654-31.941-27.836 0-9.3719 6.4441-16.419 19.362-16.419 15.522 0 26.939 10.24 36.311 28.439l41.916-23.172c-14.345-28.999-38.37-49.787-77.065-49.787-42.784 0-73.857 25.203-73.857 63.573 0 45.683 36.649 59.174 65.648 70.885 19.332 7.6506 35.443 14.345 35.443 28.734 0 11.417-7.6064 18.729-22.863 18.729-19.009 0-33.368-15.228-42.446-31.338l-43.682 22.26c15.257 30.205 40.445 52.156 86.128 52.156zm-2548.7-0.29425c53.024 0 73.254-35.148 80.861-79.698l-51.259-8.2096c-4.708 31.941-11.755 43.387-29.308 43.387-22.29 0-31.941-23.158-31.941-67.678 0-44.256 9.0777-66.221 31.338-66.221 17.287 0 23.437 12.579 27.542 40.416l51.288-9.0777c-5.8703-48.051-26.365-77.624-77.05-77.624-51.009 0-87.908 32.5-87.908 112.51 0 79.992 35.443 112.2 86.437 112.2zm103.72-3.8106h54.496v-90.541h53.039v90.541h54.466v-216.79h-54.466v81.729h-53.039v-81.729h-54.496zm196.58 0h54.496v-216.79h-54.496zm167 3.8106c53.024 0 73.254-35.148 80.861-79.698l-51.259-8.2096c-4.6786 31.941-11.711 43.387-29.308 43.387-22.26 0-31.941-23.158-31.941-67.678 0-44.256 9.0777-66.221 31.382-66.221 17.287 0 23.422 12.579 27.527 40.416l51.259-9.0777c-5.8262-48.051-26.365-77.624-77.05-77.624-50.964 0-87.878 32.5-87.878 112.51 0 79.992 35.443 112.2 86.407 112.2zm141.8-40.416h55.673l9.1071 36.605h54.775l-63.279-217.69h-53.039l-63.279 217.69h50.7zm45.418-41.916h-34.839l4.0754-16.39c5.5761-21.686 10.284-35.178 13.477-55.408h0.60323c3.2073 19.936 7.6211 34.016 12.888 55.408zm155.29 82.023c26.365 0 43.652-16.978 47.757-30.47h0.60323v26.968h39.253v-110.46h-75.593v40.151h26.365c-4.1048 19.921-14.654 29.602-30.176 29.602-19.053 0-33.971-12.02-33.971-68.855 0-57.129 16.684-65.044 31.338-65.044 14.36 0 23.128 9.0777 28.704 41.313l49.523-9.9752c-9.372-56.835-33.707-77.624-76.447-77.624-57.144 0-87.908 40.107-87.908 111.9 0 70.017 27.822 112.49 80.552 112.49zm200.72 0.60322c47.448 0 89.629-32.5 89.629-112.49 0-80.007-42.181-112.51-89.629-112.51-47.757 0-89.953 32.5-89.953 112.51 0 79.992 42.196 112.49 89.953 112.49zm0-44.815c-23.732 0-35.178-24.335-35.178-67.678 0-43.387 11.446-66.221 35.178-66.221 23.717 0 34.84 22.834 34.84 66.221 0 43.343-11.123 67.678-34.84 67.678zm262.52 44.815c50.95 0 76.152-30.764 76.152-64.176 0-45.992-39.548-59.777-69.149-72.048-17.846-7.6506-31.941-14.654-31.941-27.836 0-9.3719 6.4735-16.419 19.362-16.419 15.522 0 26.968 10.24 36.34 28.439l41.887-23.172c-14.345-28.999-38.385-49.787-77.065-49.787-42.784 0-73.813 25.203-73.813 63.573 0 45.683 36.605 59.174 65.604 70.885 19.362 7.6506 35.443 14.345 35.443 28.734 0 11.417-7.6064 18.729-22.819 18.729-19.068 0-33.412-15.228-42.49-31.338l-43.652 22.26c15.213 30.205 40.416 52.156 86.142 52.156zm174.9-0.60322c54.775 0 77.065-27.527 77.065-80.552v-139.74h-51.862v137.7c0 26.674-7.0473 36.914-24.335 36.914-17.287 0-24.585-9.9752-24.585-37.208v-137.4h-54.51v140.03c0 52.171 23.437 80.257 78.227 80.257zm106.93-3.5016h49.228v-115.74h0.6032c5.532 12.932 8.4745 18.2 13.756 27.836l48.051 87.908h50.391v-216.79h-49.228v116.3h-0.5591c-7.3416-17.287-10.284-23.422-17.022-36.649l-40.71-79.654h-54.51z"/>
</svg>
